<?xml version="1.0" encoding="UTF-8"?>
<!DOCTYPE svg PUBLIC "-//W3C//DTD SVG 1.1//EN" "http://www.w3.org/Graphics/SVG/1.1/DTD/svg11.dtd">
<svg xmlns="http://www.w3.org/2000/svg" version="1.1" width="800px" height="800px" style="shape-rendering:geometricPrecision; text-rendering:geometricPrecision; image-rendering:optimizeQuality; fill-rule:evenodd; clip-rule:evenodd" xmlns:xlink="http://www.w3.org/1999/xlink">
<g><path style="opacity:1" fill="#66757f" d="M 662.5,90.5 C 647.577,88.6923 632.577,88.0256 617.5,88.5C 617.527,70.0291 609.527,56.5291 593.5,48C 580.626,44.3441 570.126,47.8441 562,58.5C 555.616,67.4848 552.116,77.4848 551.5,88.5C 550.362,104.209 555.362,117.543 566.5,128.5C 569.695,131.852 573.362,134.685 577.5,137C 588.598,145.957 591.765,157.124 587,170.5C 580.859,180.547 572.359,183.38 561.5,179C 556.459,177.108 551.792,174.608 547.5,171.5C 519.239,151.309 505.572,123.642 506.5,88.5C 498.981,88.825 491.648,88.4916 484.5,87.5C 483.718,71.7653 477.052,59.2653 464.5,50C 449.84,43.3275 437.673,46.4942 428,59.5C 421.931,68.2071 418.764,77.8738 418.5,88.5C 416.75,104.239 421.75,117.572 433.5,128.5C 437.356,132.515 441.689,136.015 446.5,139C 459.248,151.77 459.581,164.77 447.5,178C 440.222,182.359 432.889,182.359 425.5,178C 422.006,176.421 418.673,174.587 415.5,172.5C 414.893,172.624 414.56,172.957 414.5,173.5C 386.174,152.509 372.507,124.175 373.5,88.5C 365.833,88.5 358.167,88.5 350.5,88.5C 350.51,73.0225 344.51,60.5225 332.5,51C 319.233,43.6901 307.4,45.5234 297,56.5C 289.789,65.9313 285.622,76.598 284.5,88.5C 283.779,104.068 288.779,117.401 299.5,128.5C 302.695,131.852 306.362,134.685 310.5,137C 324.431,148.859 326.098,162.192 315.5,177C 310.021,181.204 304.021,182.204 297.5,180C 292.135,177.901 286.968,175.401 282,172.5C 281.601,172.728 281.435,173.062 281.5,173.5C 252.766,152.725 239.1,124.392 240.5,88.5C 232.833,88.5 225.167,88.5 217.5,88.5C 217.125,76.5383 213.292,65.8717 206,56.5C 190.67,42.633 176.004,43.2997 162,58.5C 155.616,67.4848 152.116,77.4848 151.5,88.5C 150.382,104.241 155.382,117.574 166.5,128.5C 170.025,132.183 174.025,135.35 178.5,138C 192.253,150.818 192.92,164.151 180.5,178C 174.402,182.233 168.069,182.567 161.5,179C 156.459,177.108 151.792,174.608 147.5,171.5C 123.354,154.895 109.687,131.895 106.5,102.5C 103.725,63.5556 118.391,33.3889 150.5,12C 193.451,-5.23849 226.951,5.92818 251,45.5C 260.737,28.535 274.571,16.035 292.5,8C 332.617,-2.68335 363.283,9.81665 384.5,45.5C 406.299,8.62474 437.632,-3.54192 478.5,9C 495.18,17.346 508.347,29.5126 518,45.5C 538.935,9.74217 569.435,-2.75783 609.5,8C 643.619,24.6971 661.285,52.1971 662.5,90.5 Z M 217.5,88.5 C 195.5,88.5 173.5,88.5 151.5,88.5C 152.116,77.4848 155.616,67.4848 162,58.5C 176.004,43.2997 190.67,42.633 206,56.5C 213.292,65.8717 217.125,76.5383 217.5,88.5 Z M 350.5,88.5 C 328.5,88.5 306.5,88.5 284.5,88.5C 285.622,76.598 289.789,65.9313 297,56.5C 307.4,45.5234 319.233,43.6901 332.5,51C 344.51,60.5225 350.51,73.0225 350.5,88.5 Z M 484.5,87.5 C 462.575,88.4886 440.575,88.8219 418.5,88.5C 418.764,77.8738 421.931,68.2071 428,59.5C 437.673,46.4942 449.84,43.3275 464.5,50C 477.052,59.2653 483.718,71.7653 484.5,87.5 Z M 617.5,88.5 C 615.167,88.5 612.833,88.5 610.5,88.5C 590.833,88.5 571.167,88.5 551.5,88.5C 552.116,77.4848 555.616,67.4848 562,58.5C 570.126,47.8441 580.626,44.3441 593.5,48C 609.527,56.5291 617.527,70.0291 617.5,88.5 Z"/></g>
<g><path style="opacity:1" fill="#cbd6dd" d="M 484.5,87.5 C 491.648,88.4916 498.981,88.825 506.5,88.5C 505.572,123.642 519.239,151.309 547.5,171.5C 554.807,192.152 568.474,197.986 588.5,189C 602.566,175.321 605.399,159.488 597,141.5C 589.752,130.252 579.585,125.919 566.5,128.5C 555.362,117.543 550.362,104.209 551.5,88.5C 571.167,88.5 590.833,88.5 610.5,88.5C 650.959,96.4557 676.459,120.456 687,160.5C 688.158,254.975 688.658,349.475 688.5,444C 688.658,538.525 688.158,633.025 687,727.5C 680.122,758.369 662.289,780.202 633.5,793C 625.619,796.134 617.619,798.3 609.5,799.5C 453.833,799.5 298.167,799.5 142.5,799.5C 96.428,789.255 70.928,760.589 66,713.5C 65.3333,533.833 65.3333,354.167 66,174.5C 67.8562,143.772 81.3562,119.772 106.5,102.5C 109.687,131.895 123.354,154.895 147.5,171.5C 154.807,192.152 168.474,197.986 188.5,189C 202.541,175.277 205.374,159.444 197,141.5C 189.752,130.252 179.585,125.919 166.5,128.5C 155.382,117.574 150.382,104.241 151.5,88.5C 173.5,88.5 195.5,88.5 217.5,88.5C 225.167,88.5 232.833,88.5 240.5,88.5C 239.1,124.392 252.766,152.725 281.5,173.5C 289.499,192.336 302.832,197.503 321.5,189C 330.433,181.758 335.1,172.258 335.5,160.5C 334.653,142.006 325.32,131.006 307.5,127.5C 304.783,127.614 302.116,127.948 299.5,128.5C 288.779,117.401 283.779,104.068 284.5,88.5C 306.5,88.5 328.5,88.5 350.5,88.5C 358.167,88.5 365.833,88.5 373.5,88.5C 372.507,124.175 386.174,152.509 414.5,173.5C 422.134,191.65 435.134,197.15 453.5,190C 465.166,180.69 469.999,168.524 468,153.5C 464.012,134.449 452.512,126.115 433.5,128.5C 421.75,117.572 416.75,104.239 418.5,88.5C 440.575,88.8219 462.575,88.4886 484.5,87.5 Z"/></g>
<g><path style="opacity:1" fill="#56acee" d="M 610.5,88.5 C 612.833,88.5 615.167,88.5 617.5,88.5C 632.577,88.0256 647.577,88.6923 662.5,90.5C 690.078,96.8759 710.578,112.543 724,137.5C 727.669,145.508 730.336,153.841 732,162.5C 733.656,347.147 733.989,531.814 733,716.5C 728.709,754.456 708.876,780.623 673.5,795C 667.747,796.686 662.081,798.186 656.5,799.5C 640.833,799.5 625.167,799.5 609.5,799.5C 617.619,798.3 625.619,796.134 633.5,793C 662.289,780.202 680.122,758.369 687,727.5C 688.158,633.025 688.658,538.525 688.5,444C 688.658,349.475 688.158,254.975 687,160.5C 676.459,120.456 650.959,96.4557 610.5,88.5 Z"/></g>
<g><path style="opacity:1" fill="#282e32" d="M 147.5,171.5 C 151.792,174.608 156.459,177.108 161.5,179C 168.069,182.567 174.402,182.233 180.5,178C 192.92,164.151 192.253,150.818 178.5,138C 174.025,135.35 170.025,132.183 166.5,128.5C 179.585,125.919 189.752,130.252 197,141.5C 205.374,159.444 202.541,175.277 188.5,189C 168.474,197.986 154.807,192.152 147.5,171.5 Z"/></g>
<g><path style="opacity:1" fill="#282e32" d="M 281.5,173.5 C 281.435,173.062 281.601,172.728 282,172.5C 286.968,175.401 292.135,177.901 297.5,180C 304.021,182.204 310.021,181.204 315.5,177C 326.098,162.192 324.431,148.859 310.5,137C 306.362,134.685 302.695,131.852 299.5,128.5C 302.116,127.948 304.783,127.614 307.5,127.5C 325.32,131.006 334.653,142.006 335.5,160.5C 335.1,172.258 330.433,181.758 321.5,189C 302.832,197.503 289.499,192.336 281.5,173.5 Z"/></g>
<g><path style="opacity:1" fill="#282e32" d="M 414.5,173.5 C 414.56,172.957 414.893,172.624 415.5,172.5C 418.673,174.587 422.006,176.421 425.5,178C 432.889,182.359 440.222,182.359 447.5,178C 459.581,164.77 459.248,151.77 446.5,139C 441.689,136.015 437.356,132.515 433.5,128.5C 452.512,126.115 464.012,134.449 468,153.5C 469.999,168.524 465.166,180.69 453.5,190C 435.134,197.15 422.134,191.65 414.5,173.5 Z"/></g>
<g><path style="opacity:1" fill="#272e32" d="M 547.5,171.5 C 551.792,174.608 556.459,177.108 561.5,179C 572.359,183.38 580.859,180.547 587,170.5C 591.765,157.124 588.598,145.957 577.5,137C 573.362,134.685 569.695,131.852 566.5,128.5C 579.585,125.919 589.752,130.252 597,141.5C 605.399,159.488 602.566,175.321 588.5,189C 568.474,197.986 554.807,192.152 547.5,171.5 Z"/></g>
<g><path style="opacity:1" fill="#99aab5" d="M 150.5,310.5 C 301.834,310.333 453.167,310.5 604.5,311C 619.639,316.446 624.806,326.946 620,342.5C 616.458,349.194 610.958,353.361 603.5,355C 452.833,355.667 302.167,355.667 151.5,355C 139.82,352.318 133.487,344.985 132.5,333C 133.6,321.416 139.6,313.916 150.5,310.5 Z"/></g>
<g><path style="opacity:1" fill="#99aab5" d="M 151.5,421.5 C 302.167,421.333 452.834,421.5 603.5,422C 617.907,426.1 623.741,435.6 621,450.5C 618.313,459.186 612.479,464.353 603.5,466C 452.5,466.667 301.5,466.667 150.5,466C 139.375,462.874 133.375,455.54 132.5,444C 133.677,432 140.011,424.5 151.5,421.5 Z"/></g>
<g><path style="opacity:1" fill="#99aab5" d="M 152.5,532.5 C 302.5,532.333 452.5,532.5 602.5,533C 617.31,536.768 623.476,546.268 621,561.5C 618.427,569.739 612.927,574.905 604.5,577C 453.167,577.667 301.833,577.667 150.5,577C 136.291,572.084 130.791,562.251 134,547.5C 137.667,539.27 143.833,534.27 152.5,532.5 Z"/></g>
<g><path style="opacity:1" fill="#99aab5" d="M 152.5,643.5 C 242.834,643.333 333.167,643.5 423.5,644C 436.499,645.834 443.499,653.334 444.5,666.5C 443.459,677.37 437.792,684.536 427.5,688C 334.833,688.667 242.167,688.667 149.5,688C 136.024,682.548 130.857,672.715 134,658.5C 137.649,650.275 143.816,645.275 152.5,643.5 Z"/></g>
</svg>
