<?xml version="1.0" encoding="UTF-8"?>
<svg style="enable-background:new 0 0 32 32;" version="1.1" viewBox="0 0 32 32" xml:space="preserve" xmlns="http://www.w3.org/2000/svg" xmlns:xlink="http://www.w3.org/1999/xlink"><style type="text/css">
	.st0{fill:#B9F3F8;}
	.st1{fill:#55C1FA;}
	.st2{fill:#FBC34E;}
	.st3{opacity:0.05;}
	.st4{fill:#FFFFFF;}
	.st5{fill:#7A442A;}
	.st6{fill:#C77C58;}
	.st7{fill:#E4EDF2;}
	.st8{fill:#F25949;}
	.st9{fill:#FA9B55;}
	.st10{fill:#E5A533;}
	.st11{fill:#6FA7AB;}
	.st12{fill:#20A56C;}
	.st13{fill:#F2C09E;}
	.st14{fill:#F4E8D0;}
	.st15{fill:#F2AB38;}
	.st16{fill:#393B3D;}
	.st17{fill:#ACE4E5;}
	.st18{fill:#659899;}
	.st19{fill:#E3FAFC;}
	.st20{fill:#DDF1F2;}
	.st21{fill:#16F293;}
	.st22{fill:#5C3320;}
	.st23{fill:#AD410D;}
	.st24{fill:#8B9CA5;}
	.st25{fill:#B26C50;}
	.st26{fill:#DAE1E5;}
	.st27{fill:#425158;}
	.st28{fill:#829299;}
	.st29{fill:#A5795C;}
	.st30{fill:#7A7468;}
	.st31{fill:#7B3ABF;}
	.st32{fill:#B564FF;}
	.st33{fill:#2B617D;}
</style><g id="Magnifier"/><g id="Gear"/><g id="Home"/><g id="Shield"/><g id="Star"/><g id="Flash"/><g id="Heart"/><g id="Hearts"/><g id="Shopping_Bag"/><g id="Token"/><g id="Warning"/><g id="Warning_B"/><g id="Chat"/><g id="Diamond"/><g id="Hanger"/><g id="Warning_C"/><g id="Potion"/><g id="Hourglass"/><g id="Trophy"/><g id="Bomb"/><g id="Gem"/><g id="Spell_Book"/><g id="User"/><g id="Users"/><g id="Treasure_Chest"/><g id="Treasure_Chest_Open"/><g id="Sack"/><g id="Fishing_Pin"/><g id="Sword"/><g id="Sword_And_Shield"/><g id="Backpack"/><g id="Key"/><g id="Meat"/><g id="Skull"/><g id="Store"/><g id="Helmet"/><g id="Anvil"/><g id="Axe"/><g id="Spear"/><g id="Food"/><g id="Bow"/><g id="Scroll"><g><path class="st14" d="M25.13,21.97v-1.59c-0.018-0.272-0.127-0.526-0.312-0.726l-0.952-0.902l0.949-0.895    c0.187-0.2,0.295-0.455,0.314-0.728v-7.1H6.87v2.45c0.02,0.274,0.129,0.527,0.314,0.729l0.949,0.894l-0.952,0.902    C6.996,15.204,6.89,15.459,6.87,15.73v6.239H25.13z M12.12,11.55h7.76c0.552,0,1,0.447,1,1s-0.448,1-1,1h-7.76    c-0.552,0-1-0.447-1-1S11.568,11.55,12.12,11.55z M12.12,15h7.76c0.552,0,1,0.447,1,1s-0.448,1-1,1h-7.76c-0.552,0-1-0.447-1-1    S11.568,15,12.12,15z M12.12,18.45h7.76c0.552,0,1,0.447,1,1s-0.448,1-1,1h-7.76c-0.552,0-1-0.447-1-1S11.568,18.45,12.12,18.45z"/><path class="st13" d="M25.57,22.33c0-0.128,0.029-0.248,0.073-0.36H25.13H6.87H6.357c0.044,0.112,0.073,0.232,0.073,0.36v4.88    c0,0.128-0.029,0.248-0.073,0.36h19.285c-0.044-0.112-0.073-0.232-0.073-0.36V22.33z"/><path class="st13" d="M25.13,10.03h0.513c-0.044-0.112-0.073-0.232-0.073-0.36V4.79c0-0.128,0.029-0.248,0.073-0.36H6.357    C6.401,4.542,6.43,4.662,6.43,4.79v4.88c0,0.128-0.029,0.248-0.073,0.36H6.87H25.13z"/><path class="st29" d="M6.43,4.79c0-0.128-0.029-0.248-0.073-0.36C6.212,4.056,5.855,3.79,5.43,3.79c-0.552,0-1,0.447-1,1v1.44H3    c-0.552,0-1,0.447-1,1s0.448,1,1,1h1.43V9.67c0,0.553,0.448,1,1,1c0.424,0,0.782-0.266,0.927-0.64    C6.401,9.918,6.43,9.798,6.43,9.67V4.79z"/><path class="st29" d="M25.57,9.67c0,0.128,0.029,0.248,0.073,0.36c0.145,0.373,0.503,0.64,0.927,0.64c0.552,0,1-0.447,1-1V8.23H29    c0.552,0,1-0.447,1-1s-0.448-1-1-1h-1.43V4.79c0-0.553-0.448-1-1-1c-0.424,0-0.782,0.266-0.927,0.64    c-0.044,0.112-0.073,0.232-0.073,0.36V9.67z"/><path class="st29" d="M6.43,22.33c0-0.128-0.029-0.248-0.073-0.36c-0.145-0.373-0.503-0.64-0.927-0.64c-0.552,0-1,0.447-1,1v1.439    H3c-0.552,0-1,0.447-1,1s0.448,1,1,1h1.43v1.44c0,0.553,0.448,1,1,1c0.424,0,0.782-0.266,0.927-0.64    c0.044-0.112,0.073-0.232,0.073-0.36V22.33z"/><path class="st30" d="M12.12,17h7.76c0.552,0,1-0.447,1-1s-0.448-1-1-1h-7.76c-0.552,0-1,0.447-1,1S11.568,17,12.12,17z"/><path class="st30" d="M12.12,20.45h7.76c0.552,0,1-0.447,1-1s-0.448-1-1-1h-7.76c-0.552,0-1,0.447-1,1S11.568,20.45,12.12,20.45z"/><path class="st30" d="M12.12,13.55h7.76c0.552,0,1-0.447,1-1s-0.448-1-1-1h-7.76c-0.552,0-1,0.447-1,1S11.568,13.55,12.12,13.55z"/><path class="st29" d="M29,23.77h-1.43V22.33c0-0.553-0.448-1-1-1c-0.424,0-0.782,0.266-0.927,0.64    c-0.044,0.112-0.073,0.232-0.073,0.36v4.88c0,0.128,0.029,0.248,0.073,0.36c0.145,0.373,0.503,0.64,0.927,0.64    c0.552,0,1-0.447,1-1v-1.44H29c0.552,0,1-0.447,1-1S29.552,23.77,29,23.77z"/></g></g><g id="Armor"/><g id="Hat"/><g id="Wand"/><g id="Map"/><g id="Mushroom"/><g id="Feather"/><g id="Wings"/><g id="Fish"/></svg>