<?xml version="1.0" encoding="UTF-8"?>
<!DOCTYPE svg PUBLIC "-//W3C//DTD SVG 1.1//EN" "http://www.w3.org/Graphics/SVG/1.1/DTD/svg11.dtd">
<svg xmlns="http://www.w3.org/2000/svg" version="1.1" width="474px" height="474px" style="shape-rendering:geometricPrecision; text-rendering:geometricPrecision; image-rendering:optimizeQuality; fill-rule:evenodd; clip-rule:evenodd" xmlns:xlink="http://www.w3.org/1999/xlink">
<g><path style="opacity:0.008" fill="#fefffe" d="M 82.5,41.5 C 83.8333,42.1667 83.8333,42.1667 82.5,41.5 Z"/></g>
<g><path style="opacity:0.573" fill="#8c8e90" d="M 335.5,58.5 C 325.833,58.5 316.167,58.5 306.5,58.5C 316.16,55.9533 325.826,55.9533 335.5,58.5 Z"/></g>
<g><path style="opacity:0.439" fill="#8c8d8f" d="M 301.5,59.5 C 299.485,60.9238 297.152,61.5905 294.5,61.5C 296.515,60.0762 298.848,59.4095 301.5,59.5 Z"/></g>
<g><path style="opacity:1" fill="#33383e" d="M 306.5,58.5 C 316.167,58.5 325.833,58.5 335.5,58.5C 339.837,58.5841 343.837,59.5841 347.5,61.5C 349.102,63.0739 351.102,63.7406 353.5,63.5C 361.858,66.6718 369.191,71.3385 375.5,77.5C 378.167,80.8333 381.167,83.8333 384.5,86.5C 385.5,86.8333 386.167,87.5 386.5,88.5C 386.427,90.0269 387.094,91.0269 388.5,91.5C 390.822,92.8021 392.155,94.8021 392.5,97.5C 392.427,99.0269 393.094,100.027 394.5,100.5C 396.957,103.751 398.624,107.418 399.5,111.5C 399.259,113.898 399.926,115.898 401.5,117.5C 401.41,120.152 402.076,122.485 403.5,124.5C 406.376,137.486 406.042,150.486 402.5,163.5C 400.926,165.102 400.259,167.102 400.5,169.5C 399.737,173.137 398.403,176.47 396.5,179.5C 395.883,179.389 395.383,179.056 395,178.5C 393.208,181.747 391.708,185.081 390.5,188.5C 388.876,188.64 387.71,187.973 387,186.5C 386.151,189.521 385.317,192.521 384.5,195.5C 383.127,195.343 381.793,195.51 380.5,196C 381.167,196.333 381.833,196.667 382.5,197C 381.354,197.645 380.354,198.478 379.5,199.5C 378.914,199.291 378.414,198.957 378,198.5C 376.684,199.974 375.684,201.641 375,203.5C 374.333,202.833 373.667,202.167 373,201.5C 373.536,203.447 373.202,205.447 372,207.5C 370.16,206.167 369.66,206.334 370.5,208C 368.694,208.81 367.194,209.976 366,211.5C 364.555,210.258 363.055,209.425 361.5,209C 360.776,210.838 360.776,213.004 361.5,215.5C 357.584,218.29 353.251,220.29 348.5,221.5C 346.102,221.259 344.102,221.926 342.5,223.5C 341.504,238.324 341.171,253.324 341.5,268.5C 346.363,268.819 351.03,268.486 355.5,267.5C 358.566,265.11 361.9,263.11 365.5,261.5C 367.027,261.573 368.027,260.906 368.5,259.5C 370.794,257.347 373.46,255.68 376.5,254.5C 378.027,254.573 379.027,253.906 379.5,252.5C 379.842,251.662 380.508,251.328 381.5,251.5C 383.027,251.573 384.027,250.906 384.5,249.5C 385.659,247.75 387.326,246.75 389.5,246.5C 391.027,246.573 392.027,245.906 392.5,244.5C 394.027,244.573 395.027,243.906 395.5,242.5C 400.846,237.496 407.179,235.329 414.5,236C 415.126,236.75 415.626,237.584 416,238.5C 416.667,276.167 416.667,313.833 416,351.5C 414.094,352.131 412.094,352.464 410,352.5C 407.134,352.7 404.634,352.033 402.5,350.5C 402.027,349.094 401.027,348.427 399.5,348.5C 399.027,347.094 398.027,346.427 396.5,346.5C 395.508,346.672 394.842,346.338 394.5,345.5C 394.027,344.094 393.027,343.427 391.5,343.5C 391.027,342.094 390.027,341.427 388.5,341.5C 385.669,340.921 383.336,339.588 381.5,337.5C 381.027,336.094 380.027,335.427 378.5,335.5C 378.027,334.094 377.027,333.427 375.5,333.5C 368.589,329.925 361.922,325.925 355.5,321.5C 351.03,320.514 346.363,320.181 341.5,320.5C 341.5,333.167 341.5,345.833 341.5,358.5C 341.208,364.044 339.541,369.044 336.5,373.5C 335.312,374.684 334.145,374.684 333,373.5C 332.805,374.819 332.972,376.153 333.5,377.5C 332.735,377.923 331.902,378.257 331,378.5C 326.9,375.843 326.4,376.677 329.5,381C 325.979,382.69 323.312,385.19 321.5,388.5C 315.574,392.652 308.907,394.652 301.5,394.5C 299.675,371.855 298.841,348.855 299,325.5C 297.325,319.159 293.492,314.659 287.5,312C 243.879,310.355 200.213,310.021 156.5,311C 148.722,313.939 144.055,319.439 142.5,327.5C 141.503,349.327 141.169,371.327 141.5,393.5C 138.833,393.5 136.167,393.5 133.5,393.5C 127.287,392.817 121.62,390.65 116.5,387C 108.025,380.381 102.691,371.881 100.5,361.5C 101.161,320.486 100.494,279.82 98.5,239.5C 91.4311,236.634 85.4311,232.3 80.5,226.5C 79.4154,224.413 77.7488,223.08 75.5,222.5C 73.4202,220.427 71.7536,218.093 70.5,215.5C 70.4456,213.368 69.4456,212.035 67.5,211.5C 63.8064,206.425 61.473,200.759 60.5,194.5C 60.8294,191.772 60.1628,189.438 58.5,187.5C 54.8158,168.972 57.8158,151.638 67.5,135.5C 69.2624,134.738 70.2624,133.404 70.5,131.5C 72.7094,126.619 76.0427,122.619 80.5,119.5C 83.0892,118.581 85.0892,116.914 86.5,114.5C 87.4363,113.026 88.7697,112.026 90.5,111.5C 92.0269,111.573 93.0269,110.906 93.5,109.5C 95.451,109.227 96.951,109.893 98,111.5C 99.3161,110.026 100.316,108.359 101,106.5C 102.84,107.833 103.34,107.666 102.5,106C 106.307,104.572 109.974,103.072 113.5,101.5C 114.919,100.549 116.585,100.216 118.5,100.5C 124.833,100.5 131.167,100.5 137.5,100.5C 142.537,100.908 147.537,101.574 152.5,102.5C 153.791,102.263 154.791,102.596 155.5,103.5C 156.78,104.931 158.447,105.598 160.5,105.5C 162.553,105.402 164.22,106.069 165.5,107.5C 165.973,108.906 166.973,109.573 168.5,109.5C 175.699,113.029 181.699,118.029 186.5,124.5C 187.419,127.089 189.086,129.089 191.5,130.5C 191.427,132.027 192.094,133.027 193.5,133.5C 193.427,135.027 194.094,136.027 195.5,136.5C 197.957,139.751 199.624,143.418 200.5,147.5C 200.259,149.898 200.926,151.898 202.5,153.5C 203.903,156.909 204.57,160.575 204.5,164.5C 204.664,171.202 204.331,177.869 203.5,184.5C 218.343,184.829 233.01,184.496 247.5,183.5C 247.5,183.167 247.5,182.833 247.5,182.5C 247.167,181.5 246.5,180.833 245.5,180.5C 245.5,180.167 245.5,179.833 245.5,179.5C 245.34,177.847 244.674,176.514 243.5,175.5C 244.014,173.488 244.18,171.488 244,169.5C 243.658,171.619 242.825,171.953 241.5,170.5C 241.405,168.214 240.738,166.214 239.5,164.5C 238.087,161.781 237.42,158.781 237.5,155.5C 237.5,146.5 237.5,137.5 237.5,128.5C 237.5,127.833 237.5,127.167 237.5,126.5C 238.924,124.485 239.59,122.152 239.5,119.5C 241.411,115.767 242.744,111.767 243.5,107.5C 243.557,106.391 243.89,105.391 244.5,104.5C 245.906,104.027 246.573,103.027 246.5,101.5C 246.328,100.508 246.662,99.8417 247.5,99.5C 248.906,99.0269 249.573,98.0269 249.5,96.5C 250.906,96.0269 251.573,95.0269 251.5,93.5C 252.906,93.0269 253.573,92.0269 253.5,90.5C 256.123,86.2092 259.456,82.5425 263.5,79.5C 265.404,79.2624 266.738,78.2624 267.5,76.5C 275.116,69.1881 284.116,64.1881 294.5,61.5C 297.152,61.5905 299.485,60.9238 301.5,59.5C 302.919,58.5489 304.585,58.2155 306.5,58.5 Z M 328.5,84.5 C 326.261,89.2159 324.595,94.2159 323.5,99.5C 322.463,100.93 321.796,102.597 321.5,104.5C 321.5,104.833 321.5,105.167 321.5,105.5C 319.928,109.026 318.428,112.693 317,116.5C 315.124,117.609 313.291,118.609 311.5,119.5C 311.167,119.5 310.833,119.5 310.5,119.5C 308.973,119.427 307.973,120.094 307.5,121.5C 295.949,116.726 284.616,111.392 273.5,105.5C 282.024,94.408 293.024,87.0747 306.5,83.5C 311.154,83.0841 315.82,82.7507 320.5,82.5C 323.59,82.5217 326.257,83.1883 328.5,84.5 Z M 350.5,89.5 C 350.973,90.9063 351.973,91.573 353.5,91.5C 353.973,92.9063 354.973,93.573 356.5,93.5C 359.833,97.5 363.5,101.167 367.5,104.5C 367.427,106.027 368.094,107.027 369.5,107.5C 371.515,110.869 373.515,114.202 375.5,117.5C 375.402,119.553 376.069,121.22 377.5,122.5C 378.216,127.349 379.216,132.015 380.5,136.5C 380.768,138.099 380.434,139.432 379.5,140.5C 375.733,139.205 371.733,138.539 367.5,138.5C 361.397,136.864 355.064,135.864 348.5,135.5C 346.972,134.691 345.306,134.024 343.5,133.5C 343.5,133.167 343.5,132.833 343.5,132.5C 343.573,130.973 342.906,129.973 341.5,129.5C 340.741,127.564 339.741,125.731 338.5,124C 342.239,112.278 346.239,100.778 350.5,89.5 Z M 144.5,130.5 C 143.094,130.973 142.427,131.973 142.5,133.5C 141.662,133.842 141.328,134.508 141.5,135.5C 140.094,135.973 139.427,136.973 139.5,138.5C 137.412,140.336 136.079,142.669 135.5,145.5C 134.094,145.973 133.427,146.973 133.5,148.5C 127.652,147.962 122.319,149.295 117.5,152.5C 111.095,148.102 104.429,144.102 97.5,140.5C 96.479,139.998 96.3123,139.332 97,138.5C 111.14,125.756 127.306,122.089 145.5,127.5C 144.873,128.417 144.539,129.417 144.5,130.5 Z M 268.5,127.5 C 268.973,128.906 269.973,129.573 271.5,129.5C 271.833,129.5 272.167,129.5 272.5,129.5C 272.973,130.906 273.973,131.573 275.5,131.5C 278.378,133.105 281.378,134.439 284.5,135.5C 284.973,136.906 285.973,137.573 287.5,137.5C 288.514,138.674 289.847,139.34 291.5,139.5C 292.391,140.11 293.391,140.443 294.5,140.5C 295.918,143.061 296.918,145.728 297.5,148.5C 297.263,149.791 297.596,150.791 298.5,151.5C 298.427,153.027 299.094,154.027 300.5,154.5C 300.738,156.404 301.738,157.738 303.5,158.5C 303.326,160.861 302.993,163.194 302.5,165.5C 301.566,166.568 301.232,167.901 301.5,169.5C 299.899,172.55 298.899,175.884 298.5,179.5C 298.5,179.833 298.5,180.167 298.5,180.5C 297.733,181.172 297.066,182.005 296.5,183C 290.175,183.5 283.842,183.666 277.5,183.5C 276.92,181.251 275.587,179.585 273.5,178.5C 273.573,176.973 272.906,175.973 271.5,175.5C 271.573,173.973 270.906,172.973 269.5,172.5C 269.573,170.973 268.906,169.973 267.5,169.5C 267.598,167.447 266.931,165.78 265.5,164.5C 264.871,161.603 263.871,158.936 262.5,156.5C 262.5,156.167 262.5,155.833 262.5,155.5C 261.687,147.862 261.354,140.196 261.5,132.5C 262.176,130.141 263.009,127.808 264,125.5C 265.33,126.582 266.83,127.249 268.5,127.5 Z M 177.5,157.5 C 177.565,160.428 178.232,163.095 179.5,165.5C 179.5,165.833 179.5,166.167 179.5,166.5C 179.687,172.212 179.354,177.879 178.5,183.5C 170.316,183.826 162.316,183.492 154.5,182.5C 157.509,174.569 156.842,166.903 152.5,159.5C 153.559,157.466 154.559,155.466 155.5,153.5C 157.664,151.178 159.331,148.511 160.5,145.5C 162.474,143.572 163.974,141.239 165,138.5C 170.239,144.218 174.406,150.551 177.5,157.5 Z M 368.5,160.5 C 370.631,161.314 372.964,161.814 375.5,162C 376.056,162.383 376.389,162.883 376.5,163.5C 375.264,165.649 374.264,167.982 373.5,170.5C 372.094,170.973 371.427,171.973 371.5,173.5C 370.662,173.842 370.328,174.508 370.5,175.5C 368.413,176.585 367.08,178.251 366.5,180.5C 363.833,182.5 361.5,184.833 359.5,187.5C 357.596,187.738 356.262,188.738 355.5,190.5C 353.973,190.427 352.973,191.094 352.5,192.5C 346.263,195.946 339.597,198.28 332.5,199.5C 331.189,196.189 328.855,193.855 325.5,192.5C 324.564,191.026 323.23,190.026 321.5,189.5C 320.305,189.134 319.639,188.301 319.5,187C 320.566,183.906 321.232,180.74 321.5,177.5C 322.537,176.07 323.204,174.403 323.5,172.5C 323.961,170.45 324.628,168.45 325.5,166.5C 331.023,164.574 335.689,161.407 339.5,157C 349.172,157.832 358.838,158.998 368.5,160.5 Z M 87.5,159.5 C 87.9731,160.906 88.9731,161.573 90.5,161.5C 90.8417,162.338 91.5084,162.672 92.5,162.5C 92.9731,163.906 93.9731,164.573 95.5,164.5C 98.8485,166.934 102.349,169.267 106,171.5C 105.883,180.16 109.05,187.327 115.5,193C 111.952,195.047 109.285,197.88 107.5,201.5C 106.094,201.973 105.427,202.973 105.5,204.5C 104.094,204.973 103.427,205.973 103.5,207.5C 102.842,208.398 102.176,209.398 101.5,210.5C 100.378,209.37 99.0443,208.703 97.5,208.5C 96.5,206.833 95.1667,205.5 93.5,204.5C 93.573,202.973 92.9063,201.973 91.5,201.5C 91.2624,199.596 90.2624,198.262 88.5,197.5C 88.2041,195.597 87.5375,193.93 86.5,192.5C 85.6693,189.341 84.6693,186.341 83.5,183.5C 82.2489,176.495 82.2489,169.495 83.5,162.5C 84.29,161.391 84.79,160.058 85,158.5C 85.6708,159.252 86.5041,159.586 87.5,159.5 Z"/></g>
<g><path style="opacity:0.188" fill="#b7b9bd" d="M 347.5,61.5 C 349.786,61.595 351.786,62.2616 353.5,63.5C 351.102,63.7406 349.102,63.0739 347.5,61.5 Z"/></g>
<g><path style="opacity:0.302" fill="#979799" d="M 267.5,76.5 C 266.738,78.2624 265.404,79.2624 263.5,79.5C 264.262,77.7376 265.596,76.7376 267.5,76.5 Z"/></g>
<g><path style="opacity:0.016" fill="#c4c8ca" d="M 375.5,77.5 C 379.5,79.5 382.5,82.5 384.5,86.5C 381.167,83.8333 378.167,80.8333 375.5,77.5 Z"/></g>
<g><path style="opacity:0.078" fill="#d6d8dc" d="M 328.5,84.5 C 326.257,83.1883 323.59,82.5217 320.5,82.5C 315.82,82.7507 311.154,83.0841 306.5,83.5C 307.952,82.6981 309.618,82.1981 311.5,82C 317.491,81.5005 323.491,81.3338 329.5,81.5C 329.737,82.791 329.404,83.791 328.5,84.5 Z"/></g>
<g><path style="opacity:0.914" fill="#93959a" d="M 328.5,84.5 C 328.33,85.8221 328.663,86.9887 329.5,88C 327.213,91.7021 325.213,95.5354 323.5,99.5C 324.595,94.2159 326.261,89.2159 328.5,84.5 Z"/></g>
<g><path style="opacity:0.153" fill="#b2b7be" d="M 350.5,89.5 C 352.027,89.427 353.027,90.0937 353.5,91.5C 351.973,91.573 350.973,90.9063 350.5,89.5 Z"/></g>
<g><path style="opacity:0.2" fill="#a9acb3" d="M 386.5,88.5 C 387.906,88.9731 388.573,89.9731 388.5,91.5C 387.094,91.0269 386.427,90.0269 386.5,88.5 Z"/></g>
<g><path style="opacity:0.149" fill="#b1b1b1" d="M 253.5,90.5 C 253.573,92.0269 252.906,93.0269 251.5,93.5C 251.427,91.9731 252.094,90.9731 253.5,90.5 Z"/></g>
<g><path style="opacity:0.165" fill="#b8bbc0" d="M 353.5,91.5 C 355.027,91.427 356.027,92.0937 356.5,93.5C 354.973,93.573 353.973,92.9063 353.5,91.5 Z"/></g>
<g><path style="opacity:0.373" fill="#c4c6c9" d="M 356.5,93.5 C 361.167,96.1667 364.833,99.8333 367.5,104.5C 363.5,101.167 359.833,97.5 356.5,93.5 Z"/></g>
<g><path style="opacity:0.18" fill="#a3a3a3" d="M 251.5,93.5 C 251.573,95.0269 250.906,96.0269 249.5,96.5C 249.427,94.9731 250.094,93.9731 251.5,93.5 Z"/></g>
<g><path style="opacity:0.161" fill="#afb1b2" d="M 249.5,96.5 C 249.573,98.0269 248.906,99.0269 247.5,99.5C 247.427,97.9731 248.094,96.9731 249.5,96.5 Z"/></g>
<g><path style="opacity:0.314" fill="#838789" d="M 137.5,99.5 C 137.5,99.8333 137.5,100.167 137.5,100.5C 131.167,100.5 124.833,100.5 118.5,100.5C 124.687,99.0317 131.02,98.6983 137.5,99.5 Z"/></g>
<g><path style="opacity:0.125" fill="#c1c1c4" d="M 137.5,100.5 C 137.5,100.167 137.5,99.8333 137.5,99.5C 142.848,99.3694 147.848,100.369 152.5,102.5C 147.537,101.574 142.537,100.908 137.5,100.5 Z"/></g>
<g><path style="opacity:0.153" fill="#abacb4" d="M 392.5,97.5 C 393.906,97.9731 394.573,98.9731 394.5,100.5C 393.094,100.027 392.427,99.0269 392.5,97.5 Z"/></g>
<g><path style="opacity:0.541" fill="#9c9ea0" d="M 323.5,99.5 C 323.88,101.698 323.213,103.365 321.5,104.5C 321.796,102.597 322.463,100.93 323.5,99.5 Z"/></g>
<g><path style="opacity:0.094" fill="#d5d7d7" d="M 246.5,101.5 C 246.573,103.027 245.906,104.027 244.5,104.5C 244.427,102.973 245.094,101.973 246.5,101.5 Z"/></g>
<g><path style="opacity:0.188" fill="#a9a9af" d="M 155.5,103.5 C 157.553,103.402 159.22,104.069 160.5,105.5C 158.447,105.598 156.78,104.931 155.5,103.5 Z"/></g>
<g><path style="opacity:0.008" fill="#e7e9eb" d="M 367.5,104.5 C 368.906,104.973 369.573,105.973 369.5,107.5C 368.094,107.027 367.427,106.027 367.5,104.5 Z"/></g>
<g><path style="opacity:0.921" fill="#616368" d="M 113.5,101.5 C 109.974,103.072 106.307,104.572 102.5,106C 103.34,107.666 102.84,107.833 101,106.5C 100.316,108.359 99.3161,110.026 98,111.5C 96.951,109.893 95.451,109.227 93.5,109.5C 99.4484,105.198 106.115,102.531 113.5,101.5 Z"/></g>
<g><path style="opacity:0.094" fill="#d1d1da" d="M 165.5,107.5 C 167.027,107.427 168.027,108.094 168.5,109.5C 166.973,109.573 165.973,108.906 165.5,107.5 Z"/></g>
<g><path style="opacity:0.208" fill="#b9b9b9" d="M 93.5,109.5 C 93.0269,110.906 92.0269,111.573 90.5,111.5C 90.9731,110.094 91.9731,109.427 93.5,109.5 Z"/></g>
<g><path style="opacity:0.604" fill="#8b8e90" d="M 243.5,107.5 C 242.744,111.767 241.411,115.767 239.5,119.5C 239.861,115.085 241.194,111.085 243.5,107.5 Z"/></g>
<g><path style="opacity:0.976" fill="#707274" d="M 321.5,105.5 C 321.643,107.262 321.309,108.929 320.5,110.5C 320.977,111.478 321.643,112.311 322.5,113C 319.951,113.751 318.284,115.418 317.5,118C 315.655,119.128 313.655,119.628 311.5,119.5C 313.291,118.609 315.124,117.609 317,116.5C 318.428,112.693 319.928,109.026 321.5,105.5 Z"/></g>
<g><path style="opacity:0.357" fill="#818588" d="M 399.5,111.5 C 401.074,113.102 401.741,115.102 401.5,117.5C 399.926,115.898 399.259,113.898 399.5,111.5 Z"/></g>
<g><path style="opacity:0.498" fill="#888e8f" d="M 86.5,114.5 C 85.0892,116.914 83.0892,118.581 80.5,119.5C 81.9108,117.086 83.9108,115.419 86.5,114.5 Z"/></g>
<g><path style="opacity:0.302" fill="#abb1b4" d="M 310.5,119.5 C 310.027,120.906 309.027,121.573 307.5,121.5C 307.973,120.094 308.973,119.427 310.5,119.5 Z"/></g>
<g><path style="opacity:0.161" fill="#cfd4d5" d="M 375.5,117.5 C 376.931,118.78 377.598,120.447 377.5,122.5C 376.069,121.22 375.402,119.553 375.5,117.5 Z"/></g>
<g><path style="opacity:0.212" fill="#9da0a2" d="M 401.5,117.5 C 402.924,119.515 403.59,121.848 403.5,124.5C 402.076,122.485 401.41,120.152 401.5,117.5 Z"/></g>
<g><path style="opacity:0.039" fill="#d4d5d8" d="M 377.5,122.5 C 379.735,126.787 380.735,131.454 380.5,136.5C 379.216,132.015 378.216,127.349 377.5,122.5 Z"/></g>
<g><path style="opacity:0.161" fill="#a8a8a9" d="M 239.5,119.5 C 239.59,122.152 238.924,124.485 237.5,126.5C 237.41,123.848 238.076,121.515 239.5,119.5 Z"/></g>
<g><path style="opacity:0.071" fill="#d9d9d9" d="M 268.5,127.5 C 270.027,127.427 271.027,128.094 271.5,129.5C 269.973,129.573 268.973,128.906 268.5,127.5 Z"/></g>
<g><path style="opacity:0.157" fill="#abacb0" d="M 186.5,124.5 C 188.914,125.911 190.581,127.911 191.5,130.5C 189.086,129.089 187.419,127.089 186.5,124.5 Z"/></g>
<g><path style="opacity:0.09" fill="#d8d8dc" d="M 272.5,129.5 C 274.027,129.427 275.027,130.094 275.5,131.5C 273.973,131.573 272.973,130.906 272.5,129.5 Z"/></g>
<g><path style="opacity:0.114" fill="#cfc8d4" d="M 341.5,129.5 C 342.906,129.973 343.573,130.973 343.5,132.5C 342.094,132.027 341.427,131.027 341.5,129.5 Z"/></g>
<g><path style="opacity:0.145" fill="#adafb2" d="M 144.5,130.5 C 144.573,132.027 143.906,133.027 142.5,133.5C 142.427,131.973 143.094,130.973 144.5,130.5 Z"/></g>
<g><path style="opacity:0.161" fill="#babdbd" d="M 191.5,130.5 C 192.906,130.973 193.573,131.973 193.5,133.5C 192.094,133.027 191.427,132.027 191.5,130.5 Z"/></g>
<g><path style="opacity:0.255" fill="#a0a3a5" d="M 70.5,131.5 C 70.2624,133.404 69.2624,134.738 67.5,135.5C 67.7376,133.596 68.7376,132.262 70.5,131.5 Z"/></g>
<g><path style="opacity:0.427" fill="#bfbfc1" d="M 343.5,133.5 C 345.306,134.024 346.972,134.691 348.5,135.5C 346.219,135.923 344.552,135.256 343.5,133.5 Z"/></g>
<g><path style="opacity:0.141" fill="#c7c8cb" d="M 193.5,133.5 C 194.906,133.973 195.573,134.973 195.5,136.5C 194.094,136.027 193.427,135.027 193.5,133.5 Z"/></g>
<g><path style="opacity:0.078" fill="#dadadd" d="M 284.5,135.5 C 286.027,135.427 287.027,136.094 287.5,137.5C 285.973,137.573 284.973,136.906 284.5,135.5 Z"/></g>
<g><path style="opacity:0.141" fill="#b1b3b4" d="M 141.5,135.5 C 141.573,137.027 140.906,138.027 139.5,138.5C 139.427,136.973 140.094,135.973 141.5,135.5 Z"/></g>
<g><path style="opacity:0.11" fill="#c5cacb" d="M 261.5,132.5 C 261.354,140.196 261.687,147.862 262.5,155.5C 260.975,151.272 260.308,146.772 260.5,142C 260.502,138.648 260.835,135.482 261.5,132.5 Z"/></g>
<g><path style="opacity:0.008" fill="#fefffe" d="M 14.5,138.5 C 15.8333,139.167 15.8333,139.167 14.5,138.5 Z"/></g>
<g><path style="opacity:0.09" fill="#e4eaea" d="M 287.5,137.5 C 289.38,137.229 290.713,137.896 291.5,139.5C 289.847,139.34 288.514,138.674 287.5,137.5 Z"/></g>
<g><path style="opacity:0.176" fill="#c0c4c7" d="M 367.5,138.5 C 371.733,138.539 375.733,139.205 379.5,140.5C 375.236,140.656 371.236,139.989 367.5,138.5 Z"/></g>
<g><path style="opacity:0.524" fill="#8d8f92" d="M 237.5,128.5 C 237.5,137.5 237.5,146.5 237.5,155.5C 234.899,146.504 234.899,137.504 237.5,128.5 Z"/></g>
<g><path style="opacity:0.388" fill="#9b9d9f" d="M 294.5,140.5 C 295.496,140.414 296.329,140.748 297,141.5C 297.497,143.81 297.663,146.143 297.5,148.5C 296.918,145.728 295.918,143.061 294.5,140.5 Z"/></g>
<g><path style="opacity:0.173" fill="#abadae" d="M 135.5,145.5 C 135.573,147.027 134.906,148.027 133.5,148.5C 133.427,146.973 134.094,145.973 135.5,145.5 Z"/></g>
<g><path style="opacity:0.863" fill="#77777f" d="M 160.5,145.5 C 159.331,148.511 157.664,151.178 155.5,153.5C 153.923,151.198 154.589,149.698 157.5,149C 157.043,148.586 156.709,148.086 156.5,147.5C 157.766,146.638 159.099,145.971 160.5,145.5 Z"/></g>
<g><path style="opacity:0.478" fill="#979999" d="M 200.5,147.5 C 201.738,149.214 202.405,151.214 202.5,153.5C 200.926,151.898 200.259,149.898 200.5,147.5 Z"/></g>
<g><path style="opacity:0.102" fill="#d0d5d6" d="M 298.5,151.5 C 299.906,151.973 300.573,152.973 300.5,154.5C 299.094,154.027 298.427,153.027 298.5,151.5 Z"/></g>
<g><path style="opacity:0.02" fill="#d3d3d4" d="M 177.5,157.5 C 179.04,159.838 179.706,162.505 179.5,165.5C 178.232,163.095 177.565,160.428 177.5,157.5 Z"/></g>
<g><path style="opacity:0.161" fill="#b8b8b8" d="M 87.5,159.5 C 89.0269,159.427 90.0269,160.094 90.5,161.5C 88.9731,161.573 87.9731,160.906 87.5,159.5 Z"/></g>
<g><path style="opacity:0.82" fill="#76787c" d="M 262.5,156.5 C 263.871,158.936 264.871,161.603 265.5,164.5C 261.973,162.679 260.973,160.012 262.5,156.5 Z"/></g>
<g><path style="opacity:0.533" fill="#878a8e" d="M 368.5,160.5 C 371.187,160.336 373.854,160.503 376.5,161C 377.774,161.977 377.774,162.811 376.5,163.5C 376.389,162.883 376.056,162.383 375.5,162C 372.964,161.814 370.631,161.314 368.5,160.5 Z"/></g>
<g><path style="opacity:0.384" fill="#b4b5b8" d="M 303.5,158.5 C 304.867,161.012 304.534,163.345 302.5,165.5C 302.993,163.194 303.326,160.861 303.5,158.5 Z"/></g>
<g><path style="opacity:0.137" fill="#bbbbbc" d="M 92.5,162.5 C 94.0269,162.427 95.0269,163.094 95.5,164.5C 93.9731,164.573 92.9731,163.906 92.5,162.5 Z"/></g>
<g><path style="opacity:0.027" fill="#d9dada" d="M 239.5,164.5 C 240.738,166.214 241.405,168.214 241.5,170.5C 239.926,168.898 239.259,166.898 239.5,164.5 Z"/></g>
<g><path style="opacity:0.184" fill="#a8a8a8" d="M 402.5,163.5 C 402.405,165.786 401.738,167.786 400.5,169.5C 400.259,167.102 400.926,165.102 402.5,163.5 Z"/></g>
<g><path style="opacity:0.192" fill="#a7aaaf" d="M 83.5,162.5 C 82.2489,169.495 82.2489,176.495 83.5,183.5C 80.8986,176.493 80.8986,169.493 83.5,162.5 Z"/></g>
<g><path style="opacity:0.941" fill="#75797d" d="M 243.5,175.5 C 242.069,174.22 241.402,172.553 241.5,170.5C 242.825,171.953 243.658,171.619 244,169.5C 244.18,171.488 244.014,173.488 243.5,175.5 Z"/></g>
<g><path style="opacity:0.153" fill="#b5b5b5" d="M 267.5,169.5 C 268.906,169.973 269.573,170.973 269.5,172.5C 268.094,172.027 267.427,171.027 267.5,169.5 Z"/></g>
<g><path style="opacity:0.141" fill="#acb0b2" d="M 373.5,170.5 C 373.573,172.027 372.906,173.027 371.5,173.5C 371.427,171.973 372.094,170.973 373.5,170.5 Z"/></g>
<g><path style="opacity:0.549" fill="#aeaeb0" d="M 301.5,169.5 C 301.68,173.286 300.68,176.619 298.5,179.5C 298.899,175.884 299.899,172.55 301.5,169.5 Z"/></g>
<g><path style="opacity:0.145" fill="#d2d2d5" d="M 269.5,172.5 C 270.906,172.973 271.573,173.973 271.5,175.5C 270.094,175.027 269.427,174.027 269.5,172.5 Z"/></g>
<g><path style="opacity:0.192" fill="#a6a9a9" d="M 323.5,172.5 C 323.204,174.403 322.537,176.07 321.5,177.5C 321.12,175.302 321.787,173.635 323.5,172.5 Z"/></g>
<g><path style="opacity:0.075" fill="#cdd1d1" d="M 243.5,175.5 C 244.674,176.514 245.34,177.847 245.5,179.5C 243.896,178.713 243.229,177.38 243.5,175.5 Z"/></g>
<g><path style="opacity:0.153" fill="#bbc0bb" d="M 271.5,175.5 C 272.906,175.973 273.573,176.973 273.5,178.5C 272.094,178.027 271.427,177.027 271.5,175.5 Z"/></g>
<g><path style="opacity:0.29" fill="#9a9ca1" d="M 370.5,175.5 C 369.92,177.749 368.587,179.415 366.5,180.5C 367.08,178.251 368.413,176.585 370.5,175.5 Z"/></g>
<g><path style="opacity:0.518" fill="#939799" d="M 273.5,178.5 C 275.587,179.585 276.92,181.251 277.5,183.5C 275.413,182.415 274.08,180.749 273.5,178.5 Z"/></g>
<g><path style="opacity:0.024" fill="#ececee" d="M 245.5,180.5 C 246.5,180.833 247.167,181.5 247.5,182.5C 246.833,182.5 246.5,182.833 246.5,183.5C 246.167,183.5 245.833,183.5 245.5,183.5C 245.5,182.5 245.5,181.5 245.5,180.5 Z"/></g>
<g><path style="opacity:0.212" fill="#8f9598" d="M 179.5,166.5 C 180.719,172.357 180.719,178.357 179.5,184.5C 170.808,184.831 162.141,184.498 153.5,183.5C 153.624,182.893 153.957,182.56 154.5,182.5C 162.316,183.492 170.316,183.826 178.5,183.5C 179.354,177.879 179.687,172.212 179.5,166.5 Z"/></g>
<g><path style="opacity:0.239" fill="#8a8f94" d="M 204.5,164.5 C 205.809,170.371 205.809,176.371 204.5,182.5C 218.15,183.499 231.817,183.833 245.5,183.5C 245.833,183.5 246.167,183.5 246.5,183.5C 246.833,183.5 247.167,183.5 247.5,183.5C 233.01,184.496 218.343,184.829 203.5,184.5C 204.331,177.869 204.664,171.202 204.5,164.5 Z"/></g>
<g><path style="opacity:0.247" fill="#80858b" d="M 298.5,180.5 C 298.67,181.822 298.337,182.989 297.5,184C 290.654,184.821 283.987,184.654 277.5,183.5C 283.842,183.666 290.175,183.5 296.5,183C 297.066,182.005 297.733,181.172 298.5,180.5 Z"/></g>
<g><path style="opacity:0.376" fill="#adb1b1" d="M 83.5,183.5 C 84.6693,186.341 85.6693,189.341 86.5,192.5C 84.1376,190.081 83.1376,187.081 83.5,183.5 Z"/></g>
<g><path style="opacity:0.212" fill="#a4a4a4" d="M 359.5,187.5 C 358.738,189.262 357.404,190.262 355.5,190.5C 356.262,188.738 357.596,187.738 359.5,187.5 Z"/></g>
<g><path style="opacity:0.388" fill="#7f8386" d="M 58.5,187.5 C 60.1628,189.438 60.8294,191.772 60.5,194.5C 59.3882,192.401 58.7215,190.067 58.5,187.5 Z"/></g>
<g><path style="opacity:0.518" fill="#a1a5a6" d="M 321.5,189.5 C 323.23,190.026 324.564,191.026 325.5,192.5C 323.368,192.446 322.035,191.446 321.5,189.5 Z"/></g>
<g><path style="opacity:0.302" fill="#999c9e" d="M 355.5,190.5 C 355.027,191.906 354.027,192.573 352.5,192.5C 352.973,191.094 353.973,190.427 355.5,190.5 Z"/></g>
<g><path style="opacity:0.243" fill="#b9bbbe" d="M 325.5,192.5 C 328.855,193.855 331.189,196.189 332.5,199.5C 329.785,197.452 327.452,195.118 325.5,192.5 Z"/></g>
<g><path style="opacity:0.176" fill="#b7b8ba" d="M 88.5,197.5 C 90.2624,198.262 91.2624,199.596 91.5,201.5C 89.7376,200.738 88.7376,199.404 88.5,197.5 Z"/></g>
<g><path style="opacity:0.235" fill="#b2b2b4" d="M 91.5,201.5 C 92.9063,201.973 93.573,202.973 93.5,204.5C 92.0937,204.027 91.427,203.027 91.5,201.5 Z"/></g>
<g><path style="opacity:0.173" fill="#acacb0" d="M 107.5,201.5 C 107.573,203.027 106.906,204.027 105.5,204.5C 105.427,202.973 106.094,201.973 107.5,201.5 Z"/></g>
<g><path style="opacity:0.906" fill="#585b5e" d="M 396.5,179.5 C 388.889,195.445 377.222,207.445 361.5,215.5C 360.776,213.004 360.776,210.838 361.5,209C 363.055,209.425 364.555,210.258 366,211.5C 367.194,209.976 368.694,208.81 370.5,208C 369.66,206.334 370.16,206.167 372,207.5C 373.202,205.447 373.536,203.447 373,201.5C 373.667,202.167 374.333,202.833 375,203.5C 375.684,201.641 376.684,199.974 378,198.5C 378.414,198.957 378.914,199.291 379.5,199.5C 380.354,198.478 381.354,197.645 382.5,197C 381.833,196.667 381.167,196.333 380.5,196C 381.793,195.51 383.127,195.343 384.5,195.5C 385.317,192.521 386.151,189.521 387,186.5C 387.71,187.973 388.876,188.64 390.5,188.5C 391.708,185.081 393.208,181.747 395,178.5C 395.383,179.056 395.883,179.389 396.5,179.5 Z"/></g>
<g><path style="opacity:0.102" fill="#d7d7d8" d="M 105.5,204.5 C 105.573,206.027 104.906,207.027 103.5,207.5C 103.427,205.973 104.094,204.973 105.5,204.5 Z"/></g>
<g><path style="opacity:0.012" fill="#c4c6cc" d="M 103.5,207.5 C 102.797,213.835 100.797,214.169 97.5,208.5C 99.0443,208.703 100.378,209.37 101.5,210.5C 102.176,209.398 102.842,208.398 103.5,207.5 Z"/></g>
<g><path style="opacity:0.471" fill="#a3a5a9" d="M 67.5,211.5 C 69.4456,212.035 70.4456,213.368 70.5,215.5C 69.0256,214.564 68.0256,213.23 67.5,211.5 Z"/></g>
<g><path style="opacity:0.145" fill="#b1b6b6" d="M 75.5,222.5 C 77.7488,223.08 79.4154,224.413 80.5,226.5C 78.2512,225.92 76.5846,224.587 75.5,222.5 Z"/></g>
<g><path style="opacity:0.059" fill="#cfd3d5" d="M 348.5,221.5 C 346.786,222.738 344.786,223.405 342.5,223.5C 344.102,221.926 346.102,221.259 348.5,221.5 Z"/></g>
<g><path style="opacity:1" fill="#8798a4" d="M 292.5,226.5 C 305.38,224.189 314.547,228.856 320,240.5C 321.64,260.526 312.474,269.359 292.5,267C 281.851,261.874 277.351,253.374 279,241.5C 280.413,238.339 282.08,235.339 284,232.5C 286.736,230.248 289.569,228.248 292.5,226.5 Z"/></g>
<g><path style="opacity:1" fill="#8698a3" d="M 134.5,226.5 C 148.215,223.601 157.381,228.601 162,241.5C 163.514,259.319 155.347,268.152 137.5,268C 124.784,263.746 119.284,254.913 121,241.5C 123.29,234.383 127.79,229.383 134.5,226.5 Z"/></g>
<g><path style="opacity:0.188" fill="#b5b5bc" d="M 395.5,242.5 C 395.027,243.906 394.027,244.573 392.5,244.5C 392.973,243.094 393.973,242.427 395.5,242.5 Z"/></g>
<g><path style="opacity:0.275" fill="#9aa3a4" d="M 392.5,244.5 C 392.027,245.906 391.027,246.573 389.5,246.5C 389.973,245.094 390.973,244.427 392.5,244.5 Z"/></g>
<g><path style="opacity:0.008" fill="#fefffe" d="M 11.5,246.5 C 12.8333,247.167 12.8333,247.167 11.5,246.5 Z"/></g>
<g><path style="opacity:0.451" fill="#595b60" d="M 98.5,239.5 C 100.494,279.82 101.161,320.486 100.5,361.5C 99.7986,358.437 99.132,355.27 98.5,352C 99.7831,314.388 99.7831,276.888 98.5,239.5 Z"/></g>
<g><path style="opacity:0.122" fill="#bbbcc2" d="M 342.5,223.5 C 342.5,238.167 342.5,252.833 342.5,267.5C 346.833,267.5 351.167,267.5 355.5,267.5C 351.03,268.486 346.363,268.819 341.5,268.5C 341.171,253.324 341.504,238.324 342.5,223.5 Z"/></g>
<g><path style="opacity:0.345" fill="#979799" d="M 384.5,249.5 C 384.027,250.906 383.027,251.573 381.5,251.5C 381.973,250.094 382.973,249.427 384.5,249.5 Z"/></g>
<g><path style="opacity:0.216" fill="#acacac" d="M 379.5,252.5 C 379.027,253.906 378.027,254.573 376.5,254.5C 376.973,253.094 377.973,252.427 379.5,252.5 Z"/></g>
<g><path style="opacity:0.349" fill="#949495" d="M 368.5,259.5 C 368.027,260.906 367.027,261.573 365.5,261.5C 365.973,260.094 366.973,259.427 368.5,259.5 Z"/></g>
<g><path style="opacity:0.008" fill="#fefffe" d="M 3.5,303.5 C 4.83333,304.167 4.83333,304.167 3.5,303.5 Z"/></g>
<g><path style="opacity:0.999" fill="#8899a5" d="M 301.5,394.5 C 299.953,404.765 294.287,411.599 284.5,415C 262.859,416.113 241.192,416.613 219.5,416.5C 198.469,416.625 177.469,416.125 156.5,415C 152.49,413.657 148.99,411.491 146,408.5C 143.333,403.966 141.166,399.299 139.5,394.5C 140.5,394.5 141.5,394.5 142.5,394.5C 142.5,372.167 142.5,349.833 142.5,327.5C 144.055,319.439 148.722,313.939 156.5,311C 200.213,310.021 243.879,310.355 287.5,312C 293.492,314.659 297.325,319.159 299,325.5C 298.841,348.855 299.675,371.855 301.5,394.5 Z"/></g>
<g><path style="opacity:0.125" fill="#c3c4c7" d="M 355.5,321.5 C 351.167,321.5 346.833,321.5 342.5,321.5C 342.829,334.011 342.495,346.345 341.5,358.5C 341.5,345.833 341.5,333.167 341.5,320.5C 346.363,320.181 351.03,320.514 355.5,321.5 Z"/></g>
<g><path style="opacity:0.161" fill="#9e9fa3" d="M 375.5,333.5 C 377.027,333.427 378.027,334.094 378.5,335.5C 376.973,335.573 375.973,334.906 375.5,333.5 Z"/></g>
<g><path style="opacity:1" fill="#75808a" d="M 142.5,327.5 C 142.5,349.833 142.5,372.167 142.5,394.5C 141.5,394.5 140.5,394.5 139.5,394.5C 137.265,394.795 135.265,394.461 133.5,393.5C 136.167,393.5 138.833,393.5 141.5,393.5C 141.169,371.327 141.503,349.327 142.5,327.5 Z"/></g>
<g><path style="opacity:0.122" fill="#b6b6b6" d="M 378.5,335.5 C 380.027,335.427 381.027,336.094 381.5,337.5C 379.973,337.573 378.973,336.906 378.5,335.5 Z"/></g>
<g><path style="opacity:0.153" fill="#93959b" d="M 388.5,341.5 C 390.027,341.427 391.027,342.094 391.5,343.5C 389.973,343.573 388.973,342.906 388.5,341.5 Z"/></g>
<g><path style="opacity:0.125" fill="#a4a6a9" d="M 391.5,343.5 C 393.027,343.427 394.027,344.094 394.5,345.5C 392.973,345.573 391.973,344.906 391.5,343.5 Z"/></g>
<g><path style="opacity:0.141" fill="#95959a" d="M 396.5,346.5 C 398.027,346.427 399.027,347.094 399.5,348.5C 397.973,348.573 396.973,347.906 396.5,346.5 Z"/></g>
<g><path style="opacity:0.118" fill="#aaabb6" d="M 399.5,348.5 C 401.027,348.427 402.027,349.094 402.5,350.5C 400.973,350.573 399.973,349.906 399.5,348.5 Z"/></g>
<g><path style="opacity:0.008" fill="#fefffe" d="M 453.5,372.5 C 454.833,373.167 454.833,373.167 453.5,372.5 Z"/></g>
<g><path style="opacity:0.978" fill="#76797c" d="M 336.5,373.5 C 336.262,375.404 335.262,376.738 333.5,377.5C 332.972,376.153 332.805,374.819 333,373.5C 334.145,374.684 335.312,374.684 336.5,373.5 Z"/></g>
<g><path style="opacity:0.478" fill="#636569" d="M 333.5,377.5 C 330.777,382.556 326.777,386.223 321.5,388.5C 323.312,385.19 325.979,382.69 329.5,381C 326.4,376.677 326.9,375.843 331,378.5C 331.902,378.257 332.735,377.923 333.5,377.5 Z"/></g>
<g><path style="opacity:0.008" fill="#fefffe" d="M 470.5,443.5 C 471.833,444.167 471.833,444.167 470.5,443.5 Z"/></g>
</svg>
